<svg xmlns="http://www.w3.org/2000/svg" viewBox="0 0 1277 180"><defs><style>.cls-1{fill:#f6f6f6;}</style></defs><title>アセット 2</title><g id="レイヤー_2" data-name="レイヤー 2"><g id="レイヤー_1-2" data-name="レイヤー 1"><path class="cls-1" d="M403.44,124.73c0-31-29.85-41.33-52.24-41.91h-5.45c-12.92,0-30.72.87-43.34,2v89.55C393.1,174.38,403.44,143.67,403.44,124.73Z"/><path class="cls-1" d="M466.86,175c0-2.59,2-4.88,2-9.47v-149c0-5.65-.2-11.37-.4-16.52H398.78c6.14,7.21,9,16.06,9,25.71,0,23.82-19.52,39.32-35.59,45.63,27.55,2.87,51.66,23.83,51.66,52.53,0,31.76-19,47.92-43.25,56.13h88A11.28,11.28,0,0,1,466.86,175Z"/><path class="cls-1" d="M610.66,88.85c0-42.79,20.7-78.2,34.26-88.85h-155c-.16,5-.35,11-.35,16.81V168.64c17.79-.86,50.8-1.43,67.16-1.43,8.9,0,18.66,0,23.82-.29h.29c4.31,0,8.17,7.4,9,13.08h64.42C624.56,163.64,610.66,130,610.66,88.85Z"/><path class="cls-1" d="M302.41,68.47h3.73c11.19,0,27.26-1.14,35.87-2.58,21-3.73,45.35-17.79,45.35-38.46,0-15.61-9.83-24.6-30.72-27.43H323.1a137.22,137.22,0,0,0-20.69,3.89Z"/><path class="cls-1" d="M955.58,180h28.25a298.85,298.85,0,0,0,1.39-30.59A70.76,70.76,0,0,1,955.58,180Z"/><path class="cls-1" d="M273.42,175.82a76.28,76.28,0,0,0,8.89-.58V6.19c-3-.83-6.32-3.36-8.63-6.19H0V180H267.18C267.59,177.91,269.8,175.82,273.42,175.82Z"/><path class="cls-1" d="M825.35,100.91c0-41,17.72-79.07,46.06-100.91H763.76c20,17.84,31.16,46.86,31.16,81.39,0,42.7-15.42,80.76-48.43,98.61h119.3C841.05,167.34,825.35,142.38,825.35,100.91Z"/><path class="cls-1" d="M630.46,88.28c0,45.92,20.67,84.09,67.74,84.09,56.26,0,76.63-44.77,76.63-93.28C774.83,44.66,758.11,8.47,725,0H695.26C664.55,7.47,630.46,37.5,630.46,88.28Z"/><path class="cls-1" d="M986.1,0A61,61,0,0,1,991,5.33a5,5,0,0,1,1.14,3.44c0,5.74-6.31,13.78-11.19,13.78a5,5,0,0,1-4-2.58c-.73-1.22-9.47-15.58-34.91-20H913.36c-39.16,7.73-67.92,49.87-67.92,100.91,0,53.09,26.69,71.46,70.32,71.46,37.31,0,70.6-30.42,70.6-75.19,0-.58-.28-.87-1.14-.87l-32.72,2.3c-6.61.57-15.5,1.43-21.53,2.3h-.58c-5.45,0-10.9-9.19-10.9-14.93,0-2.29.86-4,3.44-4h4c6.32,0,15.21-.28,20.09-.57l35.59-2c3.16-.29,6.6-1.15,10-1.15,4,0,14.35,9.47,14.35,13.78,0,2.58-2.58,4-2.58,8v57.7c0,3.81.39,15.33.53,22.26h272V0Z"/><path class="cls-1" d="M659.45.16l.2-.16h-.37Z"/></g></g></svg>