<svg id="レイヤー_1" data-name="レイヤー 1" xmlns="http://www.w3.org/2000/svg" viewBox="0 0 300 300"><defs><style>.cls-1{fill:#2fcbb2;}.cls-2{fill:#4b4b4b;}</style></defs><title>blog_logo</title><circle class="cls-1" cx="150" cy="150" r="150"/><path class="cls-2" d="M265.89,79.35a17.32,17.32,0,0,0-7.36-7.82,22.17,22.17,0,0,0-10.79-2.65c-6.85,0-14.37,2.74-21,8.62-5.54,4.89-10.43,12-14,21.36V29.55a8.23,8.23,0,0,0-8.22-8.22H89.17A8.23,8.23,0,0,0,81,29.55V96.9L63.54,90.35a22.92,22.92,0,1,0-16.16,42.9l15.44,5.81a22.15,22.15,0,0,0-2.74,1.59,21.73,21.73,0,0,0,4.58,38.29l1.14.42c-.42.25-.84.52-1.24.79a21.77,21.77,0,0,0-9.51,18,21.77,21.77,0,0,0,14,20.32l1.15.43c-.45.25-.87.52-1.29.81a21.71,21.71,0,0,0,4.57,38.27l14.83,5.58a21.61,21.61,0,0,0,17.74-1.1,87.62,87.62,0,0,0,16.37,8.79,104.69,104.69,0,0,0,37.42,7.43l2.77,0c14.4,0,26.42-2.74,36.4-7.73a63.7,63.7,0,0,0,19.07-14.64c7.93-8.85,13.57-19.66,17.82-31.49s7.12-24.64,9.44-37.69c.06-.28.36-1.62.85-3.82,1.92-8.62,6.72-30.24,11.19-50.23,2.24-10,4.39-19.57,6.06-26.91.83-3.67,1.54-6.78,2.08-9.09l.67-2.83c.17-.72.3-1.23.34-1.35a22.09,22.09,0,0,0,.89-6.11A17.77,17.77,0,0,0,265.89,79.35ZM50.27,125.55a14.6,14.6,0,0,1-7-5.47,14.78,14.78,0,0,1-2.56-8.29A14.68,14.68,0,0,1,60.63,98L81,105.68V137.1Zm10.88,40.66a13.48,13.48,0,0,1-1.48-12.37,13.39,13.39,0,0,1,5-6.39A13.44,13.44,0,0,1,77.05,146h0L81,147.44l11,4.12a13.36,13.36,0,0,1,6.39,5A13.51,13.51,0,0,1,99.76,169,13.21,13.21,0,0,1,97,173.39a13.55,13.55,0,0,1-9.88,4.3,13.25,13.25,0,0,1-4.75-.88L81,176.27l-13.4-5A13.43,13.43,0,0,1,61.15,166.21Zm4.45,39.5a13.68,13.68,0,0,1-2.33-7.61,13.65,13.65,0,0,1,5.91-11.16,13.52,13.52,0,0,1,7.59-2.34,13,13,0,0,1,4.18.68c.2.05.38.14.57.2l14.83,5.59a6.47,6.47,0,0,1,.66.26,13.24,13.24,0,0,1,5.74,4.75,13.65,13.65,0,0,1,2.35,7.62,13.5,13.5,0,0,1-.87,4.75s0,0,0,0a13.35,13.35,0,0,1-5,6.36,13.53,13.53,0,0,1-12.35,1.48L81,214.1,72,210.73A13.45,13.45,0,0,1,65.6,205.71Zm43.21,41.69c0,.18-.11.38-.17.56a13.39,13.39,0,0,1-5,6.39,13.57,13.57,0,0,1-7.6,2.36,13.25,13.25,0,0,1-4.75-.88l-14.84-5.59a13.3,13.3,0,0,1-6.39-5,13.44,13.44,0,0,1-1.48-12.35,13.4,13.4,0,0,1,5-6.41A13.57,13.57,0,0,1,81,224.12h.23a13.3,13.3,0,0,1,4.75.86l.64.24,14.19,5.35a13.47,13.47,0,0,1,8.75,12.64A12.62,12.62,0,0,1,108.81,247.4Zm-9.54-64-1.19-.44q.65-.37,1.26-.78A21.72,21.72,0,0,0,97,144.85V46H197V207.67h-84.1a22.27,22.27,0,0,0,.4-4,21.68,21.68,0,0,0-14-20.33Zm53.34,41.18a5.76,5.76,0,1,1-5.75-5.75A5.76,5.76,0,0,1,152.61,224.55ZM258.68,90.63c-.13.45-.28,1.07-.51,2-.84,3.48-2.55,11-4.66,20.34-6.31,28-16.15,72.4-16.15,72.4l0,.09,0,.09a240.5,240.5,0,0,1-7.81,32.69,108.86,108.86,0,0,1-9.19,21c-5.53,9.47-12.52,17.17-21.76,22.58s-20.86,8.58-35.9,8.59l-2.58,0a96.65,96.65,0,0,1-34.5-6.81,81.84,81.84,0,0,1-12.8-6.62,21.82,21.82,0,0,0,3.55-6.14,20.66,20.66,0,0,0,1-3.45,20.41,20.41,0,0,0,.34-2.42l86.9.77a8.22,8.22,0,0,0,8.22-8.21V127.85c1.49-5.25,3.42-12,5.91-20.78,3.2-11.23,8.2-18.73,13.5-23.42s10.92-6.55,15.57-6.55a12.94,12.94,0,0,1,8.43,2.75,8.73,8.73,0,0,1,2.25,3,9.5,9.5,0,0,1,.83,4A14.19,14.19,0,0,1,258.68,90.63Z"/><path class="cls-2" d="M146.86,169.71a33.58,33.58,0,1,0-33.59-33.58A33.57,33.57,0,0,0,146.86,169.71Zm19.66-13.92a27.81,27.81,0,0,1-10.36,6.54,29,29,0,0,0,4.68-8.57h7.52C167.78,154.46,167.16,155.14,166.52,155.79Zm4-5H161.8a54.21,54.21,0,0,0,1.9-13.16h10.92A27.56,27.56,0,0,1,170.48,150.78Zm4.14-16.13H163.69a53.2,53.2,0,0,0-1.88-13.16h8.67A27.52,27.52,0,0,1,174.62,134.65Zm-8.1-18.17c.64.64,1.26,1.32,1.84,2h-7.52a37,37,0,0,0-1.78-4.12,24.93,24.93,0,0,0-2.9-4.45A27.88,27.88,0,0,1,166.52,116.48Zm-18.17-8.11c.46,0,.92.06,1.38.11a9.72,9.72,0,0,1,2.17,1.36,21.41,21.41,0,0,1,5.76,8.66h-9.31V108.37Zm0,13.12h10.34a49.68,49.68,0,0,1,2,13.16H148.35V121.49Zm0,16.13h12.37a51,51,0,0,1-2,13.16H148.35V137.62Zm0,16.14h9.29a28.05,28.05,0,0,1-1.23,2.75,18.49,18.49,0,0,1-4.51,5.91,9.55,9.55,0,0,1-2.17,1.37c-.46,0-.92.08-1.38.1Zm-21.15,2a27,27,0,0,1-1.84-2h7.51a37,37,0,0,0,1.78,4.12,24.06,24.06,0,0,0,2.9,4.45A27.54,27.54,0,0,1,127.2,155.79Zm18.17,8.1c-.47,0-.93-.06-1.4-.1a10,10,0,0,1-2.17-1.37,21.51,21.51,0,0,1-5.76-8.66h9.33Zm0-13.11H135a49.82,49.82,0,0,1-2-13.16h12.39Zm0-16.13H133a49.69,49.69,0,0,1,2-13.16h10.35v13.16Zm-3.57-24.81a10,10,0,0,1,2.17-1.36c.47,0,.93-.08,1.4-.11v10.14h-9.31a26.82,26.82,0,0,1,1.24-2.75A18.67,18.67,0,0,1,141.8,109.84Zm-14.6,6.64a27.64,27.64,0,0,1,10.35-6.55,29.34,29.34,0,0,0-4.68,8.57h-7.51A25,25,0,0,1,127.2,116.48Zm-4,5h8.68a54.14,54.14,0,0,0-1.9,13.16H119.09A27.62,27.62,0,0,1,123.22,121.49ZM130,137.62a53.74,53.74,0,0,0,1.89,13.16h-8.68a27.66,27.66,0,0,1-4.13-13.16Z"/></svg>