<svg id="レイヤー_1" data-name="レイヤー 1" xmlns="http://www.w3.org/2000/svg" viewBox="0 0 300 300"><defs><style>.cls-1{fill:#2fcbb2;}.cls-2{fill:#4b4b4b;}</style></defs><title>event_logo</title><circle class="cls-1" cx="150" cy="150" r="150"/><path class="cls-2" d="M82.39,85.19c13.76,0,16.51-12.52,16.51-19.34V59.24c0-6.83-2.76-19.34-16.51-19.34s-16.5,12.51-16.5,19.34v6.61C65.89,72.67,68.64,85.19,82.39,85.19Z"/><path class="cls-2" d="M146.89,117.26,123.83,130.5l-12.65-24.15c-3.71-7.09-8.5-12.62-15.31-12.62H70.73c-11.1,0-20.11,11.18-20.11,25v71.75h13.6v76H77.37L85.5,197.2l8.13,69.21h13.15V138.57l11.13,15.07,35.2-25.47Z"/><path class="cls-2" d="M249.38,55.42V44.5h-59V33.59H178V44.5h-59V55.42h6.22v63.69l1,1.94,5.2-3V55.42H237V164.55H131.37v-12.1l-6.21,4.5v7.6h-6.22v10.92h62.21v28.68l-21.29,47.61c-3.09.37-5.52,3.4-5.52,7.12,0,4,2.75,7.19,6.14,7.19s6.14-3.22,6.14-7.19a8,8,0,0,0-1.1-4.09l15.63-35V255.5h6.21V220.7L202.69,255a8.09,8.09,0,0,0-1,3.9c0,4,2.75,7.19,6.14,7.19s6.14-3.22,6.14-7.19c0-3.8-2.53-6.89-5.72-7.14L187.36,205V175.47h62V164.55h-6.21V55.42Z"/></svg>