<svg id="レイヤー_1" data-name="レイヤー 1" xmlns="http://www.w3.org/2000/svg" viewBox="0 0 300 300"><defs><style>.cls-1{fill:#2fcbb2;}.cls-2{fill:#4b4b4b;}</style></defs><title>team_logo</title><circle class="cls-1" cx="150" cy="150" r="150"/><path class="cls-2" d="M97.57,181a11,11,0,0,1-.16-1.13v-3.3a13.74,13.74,0,0,1,.77-4.59s8.23-11,12.12-24c-4.26-9-8.13-20.18-8.13-31.28a71,71,0,0,1,.45-7.52,29.14,29.14,0,0,0-21.35-9.11c-17.11,0-31,14-31,35.66C50.27,153.17,64.4,172,64.4,172a14.25,14.25,0,0,1,.76,4.59v3.3A10.55,10.55,0,0,1,59,189.5l-22.44,9.16a17.64,17.64,0,0,0-10,12.83l-.38,4.93a9.23,9.23,0,0,0,9.21,10H72.11l1.5-19.32.1-.52A31.62,31.62,0,0,1,91.6,183.47Z"/><path class="cls-2" d="M273.39,211.49a17.6,17.6,0,0,0-10-12.83L241,189.5a10.54,10.54,0,0,1-6.14-9.59v-3.3a14,14,0,0,1,.76-4.59s14.13-18.85,14.13-36.21c0-21.7-13.89-35.66-31-35.66a29.18,29.18,0,0,0-21.35,9.12,65.82,65.82,0,0,1,.47,7.51c0,11.09-3.87,22.28-8.12,31.27,3.88,12.94,12.13,24,12.13,24a14.25,14.25,0,0,1,.76,4.59v3.3a11,11,0,0,1-.17,1.13l5.57,2.27a31.82,31.82,0,0,1,18.3,23.2l.09.53,1.49,19.33h36.69a9.23,9.23,0,0,0,9.2-10Z"/><path class="cls-2" d="M204.1,192.85l-27.16-11.1a12.78,12.78,0,0,1-7.43-11.59v-4a17,17,0,0,1,.93-5.56s17.08-22.79,17.08-43.81c0-26.26-16.8-43.15-37.52-43.15s-37.53,16.89-37.53,43.15c0,21,17.1,43.81,17.1,43.81a17.29,17.29,0,0,1,.92,5.56v4a12.79,12.79,0,0,1-7.44,11.59L95.9,192.85a21.26,21.26,0,0,0-12.05,15.53l-1.4,18H217.54l-1.38-18A21.32,21.32,0,0,0,204.1,192.85Z"/></svg>